# xmcd
#
# Track frame offsets:
#	150
#	17487
#	36294
#	56519
#	81174
#	99171
#	132060
#	153939
#	168443
#	187305
#	210653
#	222678
#	241432
#	263011
#	282641
#	297898
#	314988
#
# Disc length: 4590 seconds
#
# Revision: 0
# Processed by: cddbd v1.5.2PL0 Copyright (c) Steve Scherf et al.
# Submitted via: audiograbber 1.83.01
#
DISCID=0211ec11
DTITLE=Robert Cray Band - Mix
DYEAR=2014
DGENRE=Blues
TTITLE0=Don´t be afraid of the Dark
TTITLE1=Across the Line
TTITLE2=Consequences
TTITLE3=A picture of a broken Heart
TTITLE4=Don´t you even care
TTITLE5=I was warned
TTITLE6=I´d rather be a wino
TTITLE7=I´m gonna forget about you
TTITLE8=Move a Mountain
TTITLE9=Our last time
TTITLE10=That´s what I´ll do
TTITLE11=The Score
TTITLE12=The things you do to me
TTITLE13=Walk around time
TTITLE14=When the wellfare turns
TTITLE15=Who´s been talking
TTITLE16=Blackjack    Collins- Cray - Copland
EXTD=
EXTT0=
EXTT1=
EXTT2=
EXTT3=
EXTT4=
EXTT5=
EXTT6=
EXTT7=
EXTT8=
EXTT9=
EXTT10=
EXTT11=
EXTT12=
EXTT13=
EXTT14=
EXTT15=
EXTT16=
PLAYORDER=
